<?xml version="1.0" standalone="no"?>
<!DOCTYPE svg PUBLIC "-//W3C//DTD SVG 20010904//EN"
 "http://www.w3.org/TR/2001/REC-SVG-20010904/DTD/svg10.dtd">
<svg version="1.0" xmlns="http://www.w3.org/2000/svg"
 width="2750.000000pt" height="2750.000000pt" viewBox="0 0 2750.000000 2750.000000"
 preserveAspectRatio="xMidYMid meet">
<metadata>
Created by potrace 1.14, written by Peter Selinger 2001-2017
</metadata>
<g transform="translate(0.000000,2750.000000) scale(0.100000,-0.100000)"
fill="#000000" stroke="none">
<path d="M1890 20608 c-902 -85 -1666 -773 -1844 -1660 -153 -761 116 -1530
707 -2025 278 -232 591 -380 962 -454 138 -27 473 -38 622 -20 474 58 897 264
1233 601 337 336 543 759 601 1233 15 128 7 482 -15 597 -85 454 -288 835
-607 1145 -444 431 -1043 641 -1659 583z m471 -1037 c380 -103 675 -398 776
-776 24 -90 27 -117 27 -270 0 -151 -3 -181 -26 -266 -52 -193 -150 -359 -295
-500 -141 -138 -295 -226 -482 -277 -85 -23 -115 -26 -266 -26 -152 0 -180 3
-267 27 -387 104 -673 390 -780 782 -26 93 -35 326 -18 432 36 226 137 421
305 588 159 160 334 255 555 301 99 20 372 12 471 -15z"/>
<path d="M13590 20613 c-880 -66 -1643 -703 -1864 -1554 -52 -202 -61 -278
-61 -534 1 -260 8 -326 65 -541 212 -803 902 -1413 1729 -1528 219 -31 518
-19 739 30 40 9 75 15 77 13 1 -2 876 -1350 1942 -2995 l1940 -2992 -75 -78
c-224 -235 -390 -506 -487 -795 -301 -904 35 -1881 830 -2411 373 -248 859
-375 1302 -340 402 33 743 157 1075 392 107 75 312 270 400 379 330 408 502
956 459 1463 -42 504 -234 935 -582 1302 -77 82 -82 89 -69 109 15 25 3862
5960 3866 5966 2 2 63 -9 136 -24 111 -23 167 -29 335 -33 223 -5 330 4 511
44 788 174 1412 798 1586 1586 40 183 49 288 43 516 -8 335 -64 565 -206 857
-284 581 -823 998 -1461 1131 -264 55 -564 54 -838 -1 -813 -165 -1462 -815
-1627 -1630 -137 -675 62 -1358 546 -1869 75 -80 82 -90 70 -108 -16 -25
-3863 -5962 -3867 -5967 -2 -2 -50 6 -106 18 -165 34 -241 41 -418 42 -166 0
-313 -15 -450 -47 -61 -13 -74 -14 -85 -3 -10 11 -3841 5919 -3869 5967 -5 8
23 45 81 106 791 826 774 2123 -38 2927 -431 427 -1028 647 -1629 602z m375
-1032 c207 -43 377 -134 531 -286 112 -110 166 -184 224 -308 219 -461 85
-1011 -323 -1318 -440 -332 -1046 -282 -1428 117 -123 129 -218 301 -266 479
-23 87 -26 120 -26 255 -1 170 11 238 62 379 126 346 423 601 791 681 117 26
315 26 435 1z m5877 -9564 c417 -109 730 -453 798 -880 19 -117 8 -329 -23
-442 -51 -183 -147 -347 -281 -481 -135 -135 -297 -229 -486 -282 -87 -25
-110 -27 -275 -27 -154 1 -192 4 -262 23 -400 108 -692 409 -790 814 -14 56
-18 112 -17 238 1 144 4 177 27 262 110 411 437 713 861 794 112 21 328 12
448 -19z"/>
<path d="M10099 13372 l-1642 -2379 -76 19 c-211 50 -531 64 -753 32 -368 -53
-721 -205 -1007 -434 -106 -85 -281 -261 -352 -355 -375 -491 -515 -1086 -398
-1695 12 -58 41 -166 65 -240 343 -1041 1431 -1641 2495 -1374 143 35 258 78
404 149 224 109 390 228 570 409 392 396 604 908 605 1461 0 250 -29 434 -106
665 -97 293 -256 558 -467 777 l-89 92 1613 2334 c887 1284 1612 2338 1612
2343 0 8 -812 573 -824 574 -4 0 -746 -1070 -1650 -2378z m-1996 -3337 c228
-40 439 -153 599 -323 125 -133 217 -299 265 -479 23 -86 26 -118 26 -258 0
-140 -3 -172 -26 -257 -52 -197 -144 -361 -279 -497 -213 -214 -470 -321 -772
-321 -281 0 -526 98 -731 292 -348 329 -439 823 -230 1255 147 303 443 527
778 588 99 18 267 18 370 0z"/>
<path d="M3678 15467 c-230 -150 -417 -275 -418 -279 0 -7 2293 -3523 2310
-3541 7 -8 833 523 845 543 5 9 -2299 3543 -2313 3547 -4 1 -195 -120 -424
-270z"/>
</g>
</svg>
